<svg width="2269.16796875px" height="336.8px" xmlns="http://www.w3.org/2000/svg" viewBox="-884.583984375 -93.4 2269.16796875 336.8" style="background: rgba(0, 0, 0, 0);" preserveAspectRatio="xMidYMid"><defs><filter id="editing-hole" x="-100%" y="-100%" width="300%" height="300%"><feFlood flood-color="#000" result="black"></feFlood><feMorphology operator="dilate" radius="2" in="SourceGraphic" result="erode"></feMorphology><feGaussianBlur in="erode" stdDeviation="4" result="blur"></feGaussianBlur><feOffset in="blur" dx="2" dy="2" result="offset"></feOffset><feComposite operator="atop" in="offset" in2="black" result="merge"></feComposite><feComposite operator="in" in="merge" in2="SourceGraphic" result="inner-shadow"></feComposite></filter></defs><g filter="url(#editing-hole)"><g transform="translate(-580.1070556640625, 150.60000228881836)"><path d="M39.60-67.80L39.60-67.80L39.60-67.80Q63.20-70 74.30-78.90L74.30-78.90L74.30-78.90Q85.40-87.80 85.40-96.50L85.40-96.50L85.40-96.50Q85.40-105.20 76.80-109.30L76.80-109.30L76.80-109.30Q68.20-113.40 55-113.40L55-113.40L55-113.40Q48-113.40 40.80-112.20L40.80-112.20L40.80-112.20Q39.60-103.60 39.60-67.80ZM41.80 1.20L41.80 1.20Q39.60 3.40 33 4.70L33 4.70L33 4.70Q26.40 6 22 6L22 6L22 6Q17.60 6 14.40 4.80L14.40 4.80L15.60-110.60L15.60-110.60Q13-113.80 10.50-121.20L10.50-121.20L10.50-121.20Q8-128.60 8-130.30L8-130.30L8-130.30Q8-132 8.40-132.50L8.40-132.50L8.40-132.50Q8.80-133 21.10-133.70L21.10-133.70L21.10-133.70Q33.40-134.40 46-134.40L46-134.40L46-134.40Q58.60-134.40 68.40-133L68.40-133L68.40-133Q78.20-131.60 88.80-128.10L88.80-128.10L88.80-128.10Q99.40-124.60 105.60-117L105.60-117L105.60-117Q111.80-109.40 111.80-97.50L111.80-97.50L111.80-97.50Q111.80-85.60 103.40-75.40L103.40-75.40L103.40-75.40Q95-65.20 80.60-58.20L80.60-58.20L80.60-58.20Q80.60-55 93.20-29.50L93.20-29.50L93.20-29.50Q105.80-4 113.20 3.40L113.20 3.40L113.20 3.40Q113.40 3.60 113.40 4.10L113.40 4.10L113.40 4.10Q113.40 4.60 110.20 6L110.20 6L110.20 6Q101.40 10.20 91.20 10.20L91.20 10.20L86.20 9.80L86.20 9.80Q81.80 5.40 70.90-19.40L70.90-19.40L70.90-19.40Q60-44.20 58.80-49.80L58.80-49.80L58.80-49.80Q56.40-48.40 39.80-45.60L39.80-45.60L39.80-45.60Q40.20-5.40 41.80 1.20L41.80 1.20ZM171.80 6L171.80 6L171.80 6Q142 6 127.70-11.20L127.70-11.20L127.70-11.20Q113.40-28.40 113.40-54.40L113.40-54.40L113.40-54.40Q113.40-67 116.40-78L116.40-78L116.40-78Q119.40-89 122-93.60L122-93.60L122-93.60Q124.60-98.20 126.20-99.10L126.20-99.10L126.20-99.10Q127.80-100 138.80-100L138.80-100L142.60-100L142.60-100Q142.60-110 146.50-117.40L146.50-117.40L146.50-117.40Q150.40-124.80 156.60-128.40L156.60-128.40L156.60-128.40Q168.20-135 178.60-135L178.60-135L178.60-135Q234.20-135 234.20-65L234.20-65L234.20-65Q234.20-43.20 226.80-26.20L226.80-26.20L226.80-26.20Q222.60-16.60 215.80-9.70L215.80-9.70L215.80-9.70Q209-2.80 197.70 1.60L197.70 1.60L197.70 1.60Q186.40 6 171.80 6ZM208.40-66.60L208.40-66.60L208.40-66.60Q208.40-113.60 180.40-113.60L180.40-113.60L180.40-113.60Q172.40-113.60 168.10-109L168.10-109L168.10-109Q163.80-104.40 163.80-97.30L163.80-97.30L163.80-97.30Q163.80-90.20 168.30-80.60L168.30-80.60L168.30-80.60Q172.80-71 177.40-65.40L177.40-65.40L181.80-59.80L181.80-59.80Q181.80-57.40 174.40-55.30L174.40-55.30L174.40-55.30Q167-53.20 162.60-53.20L162.60-53.20L162.60-53.20Q161.60-53.20 158.50-57L158.50-57L158.50-57Q155.40-60.80 151.30-68.70L151.30-68.70L151.30-68.70Q147.20-76.60 145.40-85.40L145.40-85.40L145.40-85.40Q142.40-82.40 140.60-73.20L140.60-73.20L140.60-73.20Q138.80-64 138.80-55.40L138.80-55.40L138.80-55.40Q138.80-38.60 148.20-26.70L148.20-26.70L148.20-26.70Q157.60-14.80 172-14.80L172-14.80L172-14.80Q208.40-14.80 208.40-66.60ZM282.40-82.40L282.40-78.40L309-78.60L309-78.60Q323.80-78.60 323.80-78.20L323.80-78.20L323.80-78.20Q323.80-104.40 324.60-116.40L324.60-116.40L324.60-116.40Q325.40-128.40 325.40-128.80L325.40-128.80L325.40-128.80Q325.40-129.20 328.30-130.80L328.30-130.80L328.30-130.80Q331.20-132.40 336.40-133.90L336.40-133.90L336.40-133.90Q341.60-135.40 345.30-135.40L345.30-135.40L345.30-135.40Q349-135.40 349-134.60L349-134.60L349-134.60Q346.80-105.20 346.80-71.90L346.80-71.90L346.80-71.90Q346.80-38.60 348.80-22.40L348.80-22.40L348.80-22.40Q350.80-6.20 357.60 0.60L357.60 0.60L357.60 0.60Q357.60 1 355.70 2.60L355.70 2.60L355.70 2.60Q353.80 4.20 346.70 6.40L346.70 6.40L346.70 6.40Q339.60 8.60 333.40 8.60L333.40 8.60L331 8.20L331 8.20Q327.20 4.40 325.70-7.50L325.70-7.50L325.70-7.50Q324.20-19.40 324-57.60L324-57.60L324-57.60Q320.60-57.80 302.30-57.80L302.30-57.80L302.30-57.80Q284-57.80 282.20-57.20L282.20-57.20L282.20-57.20Q282-51.60 282-32.50L282-32.50L282-32.50Q282-13.40 283.60-0.60L283.60-0.60L283.60-0.60Q283.60 1.60 277.20 3.10L277.20 3.10L277.20 3.10Q270.80 4.60 265.30 4.60L265.30 4.60L265.30 4.60Q259.80 4.60 258.70 3.50L258.70 3.50L258.70 3.50Q257.60 2.40 257.60-33.20L257.60-33.20L257.60-56.80L257.60-56.80Q255.00-59.20 251.60-66L251.60-66L251.60-66Q248.20-72.80 248.20-77.20L248.20-77.20L248.20-77.20Q248.20-77.80 258-77.80L258-77.80L258-77.80Q258.20-92 258.20-110.40L258.20-110.40L258.20-114.60L258.20-114.60Q253.00-124.20 253.00-133.60L253.00-133.60L253.00-133.60Q253.00-134.40 253.20-134.60L253.20-134.60L253.20-134.60Q254.40-134.80 255.40-134.80L255.40-134.80L255.40-134.80Q256.40-134.80 259.90-134.80L259.90-134.80L259.90-134.80Q263.40-134.80 269.80-133.50L269.80-133.50L269.80-133.50Q276.20-132.20 280-130.60L280-130.60L280-130.60Q283.80-129 283.80-128L283.80-128L283.80-128Q282.40-118.20 282.40-82.40L282.40-82.40ZM412.40-17.80L412.40-17.80L412.40-17.80Q413.20-17.80 413.20-7.90L413.20-7.90L413.20-7.90Q413.20 2 412 2L412 2L412 2Q383 2 370.40 4.80L370.40 4.80L370.40 4.80Q369.80 4.80 369.80-4L369.80-4L369.80-4Q369.80-12.80 371.20-14.60L371.20-14.60L371.20-14.60Q373.60-15.80 379-15.80L379-15.80L379-15.80Q378.60-22.60 378.60-64.30L378.60-64.30L378.60-64.30Q378.60-106 379.60-112L379.60-112L379.20-112L379.20-112Q373.80-112 370.20-110.80L370.20-110.80L370.20-110.80Q369.80-110.80 369.80-119.90L369.80-119.90L369.80-119.90Q369.80-129 371-130.20L371-130.20L371-130.20Q372.20-131.40 387-132.40L387-132.40L387-132.40Q401.80-133.40 411.80-133.40L411.80-133.40L411.80-133.40Q412.40-133.40 412.40-130.20L412.40-130.20L411.80-115.40L411.80-115.40Q411.80-114.60 411.20-114.60L411.20-114.60L411.20-114.60Q404.40-114.60 404-114.30L404-114.30L404-114.30Q403.60-114 403.40-106L403.40-106L403.40-106Q402.60-74.40 402.60-51.30L402.60-51.30L402.60-51.30Q402.60-28.20 404.20-17.60L404.20-17.60L404.20-17.60Q406.80-17.80 412.40-17.80ZM454.60-16L454.60-16L456.00-99.20L456.00-99.20Q456.00-109.40 455.50-109.90L455.50-109.90L455.50-109.90Q455.00-110.40 452.20-110.40L452.20-110.40L452.20-110.40Q446.00-110.40 430.20-108.40L430.20-108.40L424.80-107.60L424.20-112.80L424.20-112.80Q424.20-122.40 427.40-129.60L427.40-129.60L428.60-132L428.60-132Q444.20-132.20 463.90-133.30L463.90-133.30L463.90-133.30Q483.60-134.40 499.50-134.40L499.50-134.40L499.50-134.40Q515.40-134.40 515.40-133.60L515.40-133.60L515.40-133.60Q515.40-127.80 514.40-119.70L514.40-119.70L514.40-119.70Q513.40-111.60 512-110.20L512-110.20L512-110.20Q507.40-111.20 495.00-111.20L495.00-111.20L495.00-111.20Q482.60-111.20 482.00-110.60L482.00-110.60L482.00-110.60Q480.60-109.20 480.60-58.40L480.60-58.40L480.60-58.40Q480.60-7.60 486.60 3.40L486.60 3.40L486.60 3.60L486.60 3.60Q486.60 5.40 478.80 7L478.80 7L478.80 7Q471.00 8.60 466.40 8.60L466.40 8.60L466.40 8.60Q460.00 8.60 456.00 6.80L456.00 6.80L456.00 6.80Q454.60 5.20 454.60-16ZM622.60 6.20L622.60 6.20L622.60 6.20Q593.40 6.20 578.40-10.60L578.40-10.60L578.40-10.60Q563.40-27.40 563.40-54L563.40-54L563.40-54Q563.40-76.60 573.40-96L573.40-96L573.40-96Q579.20-107.40 588.00-116L588.00-116L588.00-116Q596.80-124.60 611.80-130.20L611.80-130.20L611.80-130.20Q626.80-135.80 645.80-135.80L645.80-135.80L645.80-135.80Q652.20-135.80 657.20-134.60L657.20-134.60L657.20-134.60Q662.20-133.40 662.20-133L662.20-133L662.20-133Q662.20-123.40 660.90-111.10L660.90-111.10L660.90-111.10Q659.60-98.80 659.40-98.60L659.40-98.60L659.40-98.60Q658.40-97.60 651.10-95.40L651.10-95.40L651.10-95.40Q643.80-93.20 640.20-93.20L640.20-93.20L640.20-94.40L640.20-94.40Q640.20-103.40 637.60-107L637.60-107L637.60-107Q635.00-110.60 628.60-110.60L628.60-110.60L628.60-110.60Q614.40-110.60 602.20-95.70L602.20-95.70L602.20-95.70Q590.00-80.80 590.00-54.80L590.00-54.80L590.00-54.80Q590.00-41 596.80-30L596.80-30L596.80-30Q600.40-24.20 607.30-20.60L607.30-20.60L607.30-20.60Q614.20-17 623.60-17L623.60-17L623.60-17Q642.40-17 660.20-34.40L660.20-34.40L660.20-34.40Q661.00-34.40 663.50-31.90L663.50-31.90L663.50-31.90Q666.00-29.40 668.40-25.20L668.40-25.20L668.40-25.20Q673.40-17.20 673.40-15.40L673.40-15.40L673.40-15.40Q673.40-13.60 667.20-8.70L667.20-8.70L667.20-8.70Q661.00-3.80 648.40 1.20L648.40 1.20L648.40 1.20Q635.80 6.20 622.60 6.20ZM718.60-82.40L718.60-78.40L745.20-78.60L745.20-78.60Q760.00-78.60 760.00-78.20L760.00-78.20L760.00-78.20Q760.00-104.40 760.80-116.40L760.80-116.40L760.80-116.40Q761.60-128.40 761.60-128.80L761.60-128.80L761.60-128.80Q761.60-129.20 764.50-130.80L764.50-130.80L764.50-130.80Q767.40-132.40 772.60-133.90L772.60-133.90L772.60-133.90Q777.80-135.40 781.50-135.40L781.50-135.40L781.50-135.40Q785.20-135.40 785.20-134.60L785.20-134.60L785.20-134.60Q783.00-105.20 783.00-71.90L783.00-71.90L783.00-71.90Q783.00-38.60 785.00-22.40L785.00-22.40L785.00-22.40Q787.00-6.20 793.80 0.60L793.80 0.60L793.80 0.60Q793.80 1 791.90 2.60L791.90 2.60L791.90 2.60Q790.00 4.20 782.90 6.40L782.90 6.40L782.90 6.40Q775.80 8.60 769.60 8.60L769.60 8.60L767.20 8.20L767.20 8.20Q763.40 4.40 761.90-7.50L761.90-7.50L761.90-7.50Q760.40-19.40 760.20-57.60L760.20-57.60L760.20-57.60Q756.80-57.80 738.50-57.80L738.50-57.80L738.50-57.80Q720.20-57.80 718.40-57.20L718.40-57.20L718.40-57.20Q718.20-51.60 718.20-32.50L718.20-32.50L718.20-32.50Q718.20-13.40 719.80-0.60L719.80-0.60L719.80-0.60Q719.80 1.60 713.40 3.10L713.40 3.10L713.40 3.10Q707.00 4.60 701.50 4.60L701.50 4.60L701.50 4.60Q696.00 4.60 694.90 3.50L694.90 3.50L694.90 3.50Q693.80 2.40 693.80-33.20L693.80-33.20L693.80-56.80L693.80-56.80Q691.20-59.20 687.80-66L687.80-66L687.80-66Q684.40-72.80 684.40-77.20L684.40-77.20L684.40-77.20Q684.40-77.80 694.20-77.80L694.20-77.80L694.20-77.80Q694.40-92 694.40-110.40L694.40-110.40L694.40-114.60L694.40-114.60Q689.20-124.20 689.20-133.60L689.20-133.60L689.20-133.60Q689.20-134.40 689.40-134.60L689.40-134.60L689.40-134.60Q690.60-134.80 691.60-134.80L691.60-134.80L691.60-134.80Q692.60-134.80 696.10-134.80L696.10-134.80L696.10-134.80Q699.60-134.80 706.00-133.50L706.00-133.50L706.00-133.50Q712.40-132.20 716.20-130.60L716.20-130.60L716.20-130.60Q720.00-129 720.00-128L720.00-128L720.00-128Q718.60-118.20 718.60-82.40L718.60-82.40ZM861.40 6L861.40 6L861.40 6Q831.60 6 817.30-11.20L817.30-11.20L817.30-11.20Q803.00-28.40 803.00-54.40L803.00-54.40L803.00-54.40Q803.00-67 806.00-78L806.00-78L806.00-78Q809.00-89 811.60-93.60L811.60-93.60L811.60-93.60Q814.20-98.20 815.80-99.10L815.80-99.10L815.80-99.10Q817.40-100 828.40-100L828.40-100L832.20-100L832.20-100Q832.20-110 836.10-117.40L836.10-117.40L836.10-117.40Q840.00-124.80 846.20-128.40L846.20-128.40L846.20-128.40Q857.80-135 868.20-135L868.20-135L868.20-135Q923.80-135 923.80-65L923.80-65L923.80-65Q923.80-43.20 916.40-26.20L916.40-26.20L916.40-26.20Q912.20-16.60 905.40-9.70L905.40-9.70L905.40-9.70Q898.60-2.80 887.30 1.60L887.30 1.60L887.30 1.60Q876.00 6 861.40 6ZM898.00-66.60L898.00-66.60L898.00-66.60Q898.00-113.60 870.00-113.60L870.00-113.60L870.00-113.60Q862.00-113.60 857.70-109L857.70-109L857.70-109Q853.40-104.40 853.40-97.30L853.40-97.30L853.40-97.30Q853.40-90.20 857.90-80.60L857.90-80.60L857.90-80.60Q862.40-71 867.00-65.40L867.00-65.40L871.40-59.80L871.40-59.80Q871.40-57.40 864.00-55.30L864.00-55.30L864.00-55.30Q856.60-53.20 852.20-53.20L852.20-53.20L852.20-53.20Q851.20-53.20 848.10-57L848.10-57L848.10-57Q845.00-60.80 840.90-68.70L840.90-68.70L840.90-68.70Q836.80-76.60 835.00-85.40L835.00-85.40L835.00-85.40Q832.00-82.40 830.20-73.20L830.20-73.20L830.20-73.20Q828.40-64 828.40-55.40L828.40-55.40L828.40-55.40Q828.40-38.60 837.80-26.70L837.80-26.70L837.80-26.70Q847.20-14.80 861.60-14.80L861.60-14.80L861.60-14.80Q898.00-14.80 898.00-66.60ZM967.00-124.80L967.00-124.80L965.40-69.80L965.40-69.80Q965.40-17.80 987.40-17.80L987.40-17.80L987.40-17.80Q994.00-17.80 998.60-20.50L998.60-20.50L998.60-20.50Q1003.20-23.20 1007.00-30.40L1007.00-30.40L1007.00-30.40Q1014.80-44.40 1014.80-84.50L1014.80-84.50L1014.80-84.50Q1014.80-124.60 1012.60-138L1012.60-138L1012.60-138Q1014.80-139 1018.20-139L1018.20-139L1018.20-139Q1033.20-139 1038.20-133.80L1038.20-133.80L1038.20-133.80Q1040.00-124.80 1040.00-76.80L1040.00-76.80L1040.00-76.80Q1040.00-27.80 1023.80-9.60L1023.80-9.60L1023.80-9.60Q1015.80-0.60 1006.50 3L1006.50 3L1006.50 3Q997.20 6.60 985.00 6.60L985.00 6.60L985.00 6.60Q961.20 6.60 950.40-11.50L950.40-11.50L950.40-11.50Q939.60-29.60 939.60-74L939.60-74L939.60-74Q939.60-90.80 940.10-100.20L940.10-100.20L940.10-100.20Q940.60-109.60 940.40-109.80L940.40-109.80L940.40-109.80Q939.20-112 937.50-117.40L937.50-117.40L937.50-117.40Q935.80-122.80 935.80-125.20L935.80-125.20L935.80-125.20Q935.80-126 939.60-127.60L939.60-127.60L939.60-127.60Q949.40-131.40 957.80-131.40L957.80-131.40L957.80-131.40Q966.20-131.40 966.60-131L966.60-131L966.60-131Q967.00-130.60 967.00-124.80ZM1126.60-34.20L1126.60-34.20L1126.60-34.20Q1132.40-40 1136.40-49.90L1136.40-49.90L1136.40-49.90Q1140.40-59.80 1140.40-71L1140.40-71L1140.40-71Q1140.40-82.20 1136.40-90.10L1136.40-90.10L1136.40-90.10Q1132.40-98 1127.00-102.10L1127.00-102.10L1127.00-102.10Q1121.60-106.20 1114.60-108.80L1114.60-108.80L1114.60-108.80Q1103.80-112.80 1094.00-112.80L1094.00-112.80L1094.00-112.80Q1091.40-112.80 1091.40-112.60L1091.40-112.60L1091.40-112.60Q1090.00-111.20 1090.00-65.40L1090.00-65.40L1090.00-65.40Q1090.00-19.60 1091.40-18.20L1091.40-18.20L1091.40-18.20Q1091.80-17.80 1094.30-17.80L1094.30-17.80L1094.30-17.80Q1096.80-17.80 1101.90-19.20L1101.90-19.20L1101.90-19.20Q1107.00-20.60 1113.90-24.50L1113.90-24.50L1113.90-24.50Q1120.80-28.40 1126.60-34.20ZM1064.60-30.40L1064.60-30.40L1065.20-109.40L1065.20-109.40Q1063.00-112.80 1059.60-121.50L1059.60-121.50L1059.60-121.50Q1056.20-130.20 1056.20-131.90L1056.20-131.90L1056.20-131.90Q1056.20-133.60 1056.40-133.80L1056.40-133.80L1056.40-133.80Q1058.40-135.80 1080.00-135.80L1080.00-135.80L1080.00-135.80Q1121.60-135.80 1144.30-118.40L1144.30-118.40L1144.30-118.40Q1167.00-101 1167.00-71.80L1167.00-71.80L1167.00-71.80Q1167.00-57.40 1162.40-45.30L1162.40-45.30L1162.40-45.30Q1157.80-33.20 1150.10-24.90L1150.10-24.90L1150.10-24.90Q1142.40-16.60 1132.90-10.30L1132.90-10.30L1132.90-10.30Q1123.40-4 1112.80-0.40L1112.80-0.40L1112.80-0.40Q1092.00 6.40 1075.00 6.40L1075.00 6.40L1075.00 6.40Q1067.00 6.40 1065.80 5.20L1065.80 5.20L1065.80 5.20Q1064.60 4 1064.60-30.40ZM1215.20-82.40L1215.20-78.40L1241.80-78.60L1241.80-78.60Q1256.60-78.60 1256.60-78.20L1256.60-78.20L1256.60-78.20Q1256.60-104.40 1257.40-116.40L1257.40-116.40L1257.40-116.40Q1258.20-128.40 1258.20-128.80L1258.20-128.80L1258.20-128.80Q1258.20-129.20 1261.10-130.80L1261.10-130.80L1261.10-130.80Q1264.00-132.40 1269.20-133.90L1269.20-133.90L1269.20-133.90Q1274.40-135.40 1278.10-135.40L1278.10-135.40L1278.10-135.40Q1281.80-135.40 1281.80-134.60L1281.80-134.60L1281.80-134.60Q1279.60-105.20 1279.60-71.90L1279.60-71.90L1279.60-71.90Q1279.60-38.60 1281.60-22.40L1281.60-22.40L1281.60-22.40Q1283.60-6.20 1290.40 0.60L1290.40 0.60L1290.40 0.60Q1290.40 1 1288.50 2.60L1288.50 2.60L1288.50 2.60Q1286.60 4.20 1279.50 6.40L1279.50 6.40L1279.50 6.40Q1272.40 8.60 1266.20 8.60L1266.20 8.60L1263.80 8.20L1263.80 8.20Q1260.00 4.40 1258.50-7.50L1258.50-7.50L1258.50-7.50Q1257.00-19.40 1256.80-57.60L1256.80-57.60L1256.80-57.60Q1253.40-57.80 1235.10-57.80L1235.10-57.80L1235.10-57.80Q1216.80-57.80 1215.00-57.20L1215.00-57.20L1215.00-57.20Q1214.80-51.60 1214.80-32.50L1214.80-32.50L1214.80-32.50Q1214.80-13.40 1216.40-0.60L1216.40-0.60L1216.40-0.60Q1216.40 1.60 1210.00 3.10L1210.00 3.10L1210.00 3.10Q1203.60 4.60 1198.10 4.60L1198.10 4.60L1198.10 4.60Q1192.60 4.60 1191.50 3.50L1191.50 3.50L1191.50 3.50Q1190.40 2.40 1190.40-33.20L1190.40-33.20L1190.40-56.80L1190.40-56.80Q1187.80-59.20 1184.40-66L1184.40-66L1184.40-66Q1181.00-72.80 1181.00-77.20L1181.00-77.20L1181.00-77.20Q1181.00-77.80 1190.80-77.80L1190.80-77.80L1190.80-77.80Q1191.00-92 1191.00-110.40L1191.00-110.40L1191.00-114.60L1191.00-114.60Q1185.80-124.20 1185.80-133.60L1185.80-133.60L1185.80-133.60Q1185.80-134.40 1186.00-134.60L1186.00-134.60L1186.00-134.60Q1187.20-134.80 1188.20-134.80L1188.20-134.80L1188.20-134.80Q1189.20-134.80 1192.70-134.80L1192.70-134.80L1192.70-134.80Q1196.20-134.80 1202.60-133.50L1202.60-133.50L1202.60-133.50Q1209.00-132.20 1212.80-130.60L1212.80-130.60L1212.80-130.60Q1216.60-129 1216.60-128L1216.60-128L1216.60-128Q1215.20-118.20 1215.20-82.40L1215.20-82.40ZM1371.20-44.80L1371.20-44.80L1371.20-44.80Q1368.40-45 1354-45L1354-45L1354-45Q1339.60-45 1337.20-44.20L1337.20-44.20L1337.20-44.20Q1326.60-9.40 1325.20 6L1325.20 6L1325.20 6Q1325.20 6.20 1320.30 6.20L1320.30 6.20L1320.30 6.20Q1315.40 6.20 1310.20 5.60L1310.20 5.60L1310.20 5.60Q1299.20 4 1299.20 2.80L1299.20 2.80L1299.20 2.80Q1299.20-5.20 1313.40-43.80L1313.40-43.80L1313.40-43.80Q1310.80-46 1307.40-52.90L1307.40-52.90L1307.40-52.90Q1304-59.80 1304-64.40L1304-64.40L1304-64.40Q1304-64.60 1320.60-65.20L1320.60-65.20L1320.60-65.20Q1337-112.80 1339.20-115.40L1339.20-115.40L1339.20-115.40Q1340-116 1346.40-117.30L1346.40-117.30L1346.40-117.30Q1352.80-118.60 1354.60-118.60L1354.60-118.60L1354.20-121.20L1354.20-121.20Q1353.80-124 1353.30-127.30L1353.30-127.30L1353.30-127.30Q1352.80-130.60 1352.80-131.60L1352.80-131.60L1352.80-131.60Q1352.80-132.20 1356.20-134L1356.20-134L1356.20-134Q1366-138.80 1376.40-138.80L1376.40-138.80L1376.40-138.80Q1378.40-127 1381.70-108.70L1381.70-108.70L1381.70-108.70Q1385-90.40 1394.60-52.80L1394.60-52.80L1394.60-52.80Q1404.20-15.20 1413-0.40L1413-0.40L1414.40 2L1414.40 2Q1414.40 3 1410.60 5.40L1410.60 5.40L1410.60 5.40Q1406.80 7.80 1400.60 10L1400.60 10L1400.60 10Q1394.40 12.20 1389.20 12.20L1389.20 12.20L1389.20 12.20Q1387.40 12.20 1380.50-10.50L1380.50-10.50L1380.50-10.50Q1373.60-33.20 1371.20-44.80ZM1366.40-65.40L1366.40-65.40L1366.40-65.40Q1359.60-94.20 1359-97.60L1359-97.60L1359-97.60Q1358.40-101 1358-101L1358-101L1358-101Q1357.60-101 1357-100.20L1357-100.20L1357-100.20Q1355.20-96.80 1350.30-83.80L1350.30-83.80L1350.30-83.80Q1345.40-70.80 1344-65.80L1344-65.80L1344-65.80Q1366.20-65.80 1366.40-65.40ZM1457-67.80L1457-67.80L1457-67.80Q1480.60-70 1491.70-78.90L1491.70-78.90L1491.70-78.90Q1502.80-87.80 1502.80-96.50L1502.80-96.50L1502.80-96.50Q1502.80-105.20 1494.20-109.30L1494.20-109.30L1494.20-109.30Q1485.60-113.40 1472.40-113.40L1472.40-113.40L1472.40-113.40Q1465.40-113.40 1458.20-112.20L1458.20-112.20L1458.20-112.20Q1457-103.60 1457-67.80ZM1459.20 1.20L1459.20 1.20Q1457 3.40 1450.40 4.70L1450.40 4.70L1450.40 4.70Q1443.80 6 1439.40 6L1439.40 6L1439.40 6Q1435 6 1431.80 4.80L1431.80 4.80L1433-110.60L1433-110.60Q1430.40-113.80 1427.90-121.20L1427.90-121.20L1427.90-121.20Q1425.40-128.60 1425.40-130.30L1425.40-130.30L1425.40-130.30Q1425.40-132 1425.80-132.50L1425.80-132.50L1425.80-132.50Q1426.20-133 1438.50-133.70L1438.50-133.70L1438.50-133.70Q1450.80-134.40 1463.40-134.40L1463.40-134.40L1463.40-134.40Q1476-134.40 1485.80-133L1485.80-133L1485.80-133Q1495.60-131.60 1506.20-128.10L1506.20-128.10L1506.20-128.10Q1516.80-124.60 1523-117L1523-117L1523-117Q1529.20-109.40 1529.20-97.50L1529.20-97.50L1529.20-97.50Q1529.20-85.60 1520.80-75.40L1520.80-75.40L1520.80-75.40Q1512.40-65.20 1498-58.20L1498-58.20L1498-58.20Q1498-55 1510.60-29.50L1510.60-29.50L1510.60-29.50Q1523.20-4 1530.60 3.40L1530.60 3.40L1530.60 3.40Q1530.80 3.60 1530.80 4.10L1530.80 4.10L1530.80 4.10Q1530.80 4.60 1527.60 6L1527.60 6L1527.60 6Q1518.80 10.20 1508.60 10.20L1508.60 10.20L1503.60 9.80L1503.60 9.80Q1499.20 5.40 1488.30-19.40L1488.30-19.40L1488.30-19.40Q1477.40-44.20 1476.20-49.80L1476.20-49.80L1476.20-49.80Q1473.80-48.40 1457.20-45.60L1457.20-45.60L1457.20-45.60Q1457.60-5.40 1459.20 1.20L1459.20 1.20ZM1577.40 6L1577.40 6L1578.00-49L1578.00-51.60L1578.00-51.60Q1572.40-59.40 1558.10-85.10L1558.10-85.10L1558.10-85.10Q1543.80-110.80 1542.60-112.40L1542.60-112.40L1542.60-112.40Q1538.00-117 1530.00-117L1530.00-117L1530.00-117Q1529.80-117.40 1529.80-119.20L1529.80-119.20L1529.80-119.20Q1529.80-121 1531.10-124.90L1531.10-124.90L1531.10-124.90Q1532.40-128.80 1532.90-129.30L1532.90-129.30L1532.90-129.30Q1533.40-129.80 1536.60-130.40L1536.60-130.40L1536.60-130.40Q1545.20-132 1554.00-132L1554.00-132L1554.00-132Q1562.80-132 1563.30-131.60L1563.30-131.60L1563.30-131.60Q1563.80-131.20 1568.80-120.60L1568.80-120.60L1568.80-120.60Q1584.40-87.40 1591.80-76.20L1591.80-76.20L1592.20-76.20L1592.20-76.20Q1593.40-80.60 1609.30-108L1609.30-108L1609.30-108Q1625.20-135.40 1627.80-135.40L1627.80-135.40L1627.80-135.40Q1633.80-135.40 1639.80-133.80L1639.80-133.80L1639.80-133.80Q1645.80-132.20 1649.20-130.30L1649.20-130.30L1649.20-130.30Q1652.60-128.40 1652.40-127.20L1652.40-127.20L1652.40-127.20Q1641.80-115.40 1624.30-89.30L1624.30-89.30L1624.30-89.30Q1606.80-63.20 1603.60-51.60L1603.60-51.60L1603.60-51.60Q1603.20-47.60 1603.20-25.80L1603.20-25.80L1603.20-25.80Q1603.20-4 1604.80 2.80L1604.80 2.80L1604.80 2.80Q1604.80 5.20 1598.40 6.40L1598.40 6.40L1598.40 6.40Q1592.00 7.60 1585.90 7.60L1585.90 7.60L1585.90 7.60Q1579.80 7.60 1577.40 6Z" fill="#ccc"></path></g></g><style>text {
  font-size: 64px;
  font-family: Arial Black;
  dominant-baseline: central;
  text-anchor: middle;
}</style></svg>